# xmcd
# 
# Track frame offsets:
#     150
#     23491
#     48219
#     76898
#     102514
#     129941
#     155161
#     179871
#     202445
#     229078
# 
# Disc length: 3363
# 
# Revision: 8
# Processed by: cddbd v1.5.2PL0 Copyright (c) Steve Scherf et al.
# Submitted via: fre:ac v1.0.17
# 
DISCID=860d210a
DTITLE=古内東子 - 10stories
DYEAR=2002
DGENRE=JPop
TTITLE0=DON’T PRETEND
TTITLE1=恋なんて＜album version＞
TTITLE2=すべてには理由がある
TTITLE3=シャツのボタン
TTITLE4=最後の曲
TTITLE5=あってみたい人
TTITLE6=COME CLOSER
TTITLE7=純粋に、単純に
TTITLE8=いちばん欲しいもの
TTITLE9=この手のひら
EXTD=
EXTT0=
EXTT1=
EXTT2=
EXTT3=
EXTT4=
EXTT5=
EXTT6=
EXTT7=
EXTT8=
EXTT9=
PLAYORDER=
